<svg width="1200" height="600" viewBox="0 0 1200 600" fill="none" xmlns="http://www.w3.org/2000/svg">
<ellipse cx="600" cy="300.327" rx="573.454" ry="262.752" transform="rotate(-6.64304 600 300.327)" fill="#272727"/>
<path d="M247.316 380.476C242.765 370.705 241.892 359.102 244.713 345.638L254.804 298.426C258.061 282.795 257.945 270.654 254.484 261.959C251.009 253.278 243.739 248.291 232.674 246.982L234.622 237.211C243.085 236.121 250.849 233.576 257.901 229.563C264.953 225.55 271.467 219.792 277.429 212.304C283.39 204.816 288.654 195.539 293.219 184.474H303.31L291.911 237.211H337.16L334.877 246.982C319.246 249.149 306.073 254.471 295.328 262.933C284.582 271.395 277.589 283.115 274.332 298.091L266.524 334.224C264.779 343.122 265.433 350.291 268.472 355.714C271.511 361.138 276.818 363.857 284.423 363.857C289.628 363.857 294.354 362.068 298.585 358.492C302.816 354.915 306.117 350.509 308.516 345.304L317.313 349.215C312.965 364.191 307.163 375.591 299.893 383.399C292.623 391.207 283.783 395.118 273.357 395.118C260.547 395.118 251.867 390.233 247.316 380.462V380.476Z" fill="white"/>
<path d="M340.577 384.227C332.216 376.956 328.043 367.36 328.043 355.422C328.043 345.012 331.14 335.619 337.32 327.258C343.499 318.912 351.918 312.398 362.547 307.73C373.176 303.063 384.794 300.737 397.385 300.737C408.232 300.737 417.625 302.263 425.55 305.288C433.474 308.327 440.032 312.456 445.252 317.661L441.995 333.292C436.135 329.599 429.519 326.836 422.133 324.99C414.746 323.143 406.182 322.227 396.411 322.227C388.167 322.227 380.402 323.259 373.132 325.324C365.862 327.389 360.002 330.428 355.553 334.441C351.104 338.454 348.879 343.063 348.879 348.283C348.879 354.143 351.802 358.708 357.661 361.951C363.521 365.193 371.984 366.836 383.049 366.836C392.165 366.836 400.686 365.586 408.61 363.1C416.535 360.613 423.151 357.138 428.472 352.689C433.794 348.24 437.095 343.092 438.403 337.218L447.52 294.571C449.687 284.597 447.898 276.454 442.155 270.158C436.397 263.863 427.993 260.722 416.927 260.722C407.374 260.722 398.752 262.946 391.046 267.396C383.339 271.845 376.985 277.981 371.998 285.789H366.138L348.239 265.927C357.356 255.298 368.145 247.039 380.635 241.18C393.11 235.32 406.197 232.383 419.865 232.383C432.238 232.383 442.431 234.768 450.472 239.551C458.498 244.32 463.98 251.227 466.917 260.227C469.839 269.242 470.116 279.711 467.731 291.649L458.614 333.321C456.448 342.874 456.39 350.246 458.454 355.466C460.519 360.671 464.154 363.274 469.359 363.274C473.053 363.274 476.252 361.965 478.971 359.363C481.675 356.76 484.016 353.183 485.964 348.618L491.824 352.849C489.658 363.914 485.31 373.743 478.796 382.307C472.282 390.871 464.256 395.161 454.703 395.161C448.189 395.161 442.925 392.936 438.912 388.487C434.899 384.038 432.456 377.8 431.584 369.774C424.634 378.454 416.448 384.866 407.011 388.981C397.574 393.096 387.091 395.161 375.59 395.161C360.613 395.161 348.952 391.526 340.591 384.256L340.577 384.227Z" fill="white"/>
<path d="M727.505 387.964C723.158 383.195 720.991 376.899 720.991 369.076C720.991 364.089 721.747 358.549 723.274 352.471C724.786 346.394 727.185 337.931 730.442 327.084C732.827 319.058 734.615 312.268 735.808 306.742C737 301.202 737.596 296.055 737.596 291.271C737.596 282.809 735.212 276.077 730.428 271.09C725.644 266.102 718.708 263.601 709.592 263.601C702.205 263.601 694.019 265.128 685.019 268.153C676.004 271.191 667.599 275.423 659.791 280.846L649.381 330.007C646.778 342.38 647.04 352.689 650.195 360.934C653.336 369.178 659.472 375.59 668.588 380.141L666.305 390.232H587.846L589.795 380.141C598.257 377.102 604.989 373.627 609.977 369.731C614.964 365.819 619.035 361.05 622.19 355.408C625.331 349.767 627.89 342.598 629.839 333.918L635.698 304.939C638.301 292.566 637.429 282.591 633.096 274.986C628.748 267.396 621.26 263.587 610.631 263.587C602.168 263.587 593.488 265.114 584.589 268.138C575.691 271.177 567.548 275.408 560.176 280.832C557.355 289.948 555.509 297.218 554.636 302.642L549.097 329.018C546.494 341.61 546.712 352.239 549.751 360.919C552.79 369.6 558.969 376.012 568.304 380.127L566.021 390.218H489.511L491.459 380.127C499.703 376.652 506.159 373.075 510.827 369.382C515.494 365.688 519.347 361.036 522.386 355.379C525.425 349.738 527.926 342.569 529.874 333.889L534.106 313.373C536.708 300.563 536.985 290.094 534.92 281.951C532.855 273.809 528.246 266.815 521.078 260.955L523.36 251.184L568.29 232.296H577.726C575.982 236.208 574.309 240.104 572.681 244.016C571.052 247.927 569.366 252.158 567.635 256.709C577.406 248.683 586.945 242.605 596.28 238.476C605.614 234.361 614.179 232.296 622.001 232.296C632.194 232.296 640.555 234.957 647.069 240.279C653.583 245.601 657.698 252.929 659.442 262.249C670.508 251.838 681.355 244.234 691.998 239.465C702.627 234.695 712.936 232.296 722.925 232.296C735.081 232.296 744.357 235.83 750.755 242.882C757.153 249.934 760.352 259.108 760.352 270.392C760.352 275.394 759.915 280.701 759.043 286.342C758.171 291.984 756.978 298.178 755.466 304.896L748.952 334.849C748.08 339.196 747.644 343.093 747.644 346.568C747.644 351.337 748.778 355.249 751.06 358.287C753.343 361.326 756.324 362.839 760.017 362.839C763.492 362.839 766.531 361.588 769.134 359.087C771.737 356.601 774.121 353.068 776.302 348.502L782.162 352.733C779.341 365.325 774.674 375.518 768.16 383.34C761.646 391.148 754.041 395.06 745.375 395.06C737.771 395.06 731.809 392.675 727.476 387.891L727.505 387.964Z" fill="white"/>
<path d="M800.906 384.227C792.545 376.956 788.372 367.36 788.372 355.422C788.372 345.012 791.469 335.619 797.649 327.258C803.828 318.912 812.247 312.398 822.876 307.73C833.505 303.063 845.123 300.737 857.714 300.737C868.561 300.737 877.954 302.263 885.879 305.288C893.803 308.327 900.361 312.456 905.581 317.661L902.324 333.292C896.464 329.599 889.848 326.836 882.462 324.99C875.075 323.143 866.511 322.227 856.74 322.227C848.496 322.227 840.731 323.259 833.461 325.324C826.191 327.389 820.332 330.428 815.882 334.441C811.433 338.454 809.208 343.063 809.208 348.283C809.208 354.143 812.131 358.708 817.991 361.951C823.85 365.193 832.313 366.836 843.378 366.836C852.495 366.836 861.015 365.586 868.94 363.1C876.864 360.613 883.48 357.138 888.801 352.689C894.123 348.24 897.424 343.092 898.732 337.218L907.849 294.571C910.016 284.597 908.227 276.454 902.484 270.158C896.726 263.863 888.322 260.722 877.257 260.722C867.704 260.722 859.081 262.946 851.375 267.396C843.669 271.845 837.315 277.981 832.327 285.789H826.467L808.568 265.927C817.685 255.298 828.474 247.039 840.964 241.18C853.44 235.32 866.526 232.383 880.194 232.383C892.567 232.383 902.76 234.768 910.801 239.551C918.827 244.32 924.309 251.227 927.246 260.227C930.168 269.242 930.445 279.711 928.06 291.649L918.943 333.321C916.777 342.874 916.719 350.246 918.783 355.466C920.848 360.671 924.483 363.274 929.689 363.274C933.382 363.274 936.581 361.965 939.3 359.363C942.004 356.76 944.345 353.183 946.294 348.618L952.153 352.849C949.987 363.914 945.639 373.743 939.125 382.307C932.611 390.871 924.585 395.161 915.032 395.161C908.518 395.161 903.254 392.936 899.241 388.487C895.228 384.038 892.785 377.8 891.913 369.774C884.963 378.454 876.777 384.866 867.34 388.981C857.903 393.096 847.42 395.161 835.919 395.161C820.942 395.161 809.281 391.526 800.92 384.256L800.906 384.227Z" fill="white"/>
<path d="M962.535 389.753C959.497 386.176 957.984 381.77 957.984 376.565C957.984 370.705 960.151 365.383 964.498 360.614C968.831 355.845 974.153 353.446 980.449 353.446C985.654 353.446 989.842 355.351 992.983 359.146C996.123 362.941 997.708 367.448 997.708 372.654C997.708 378.513 995.542 383.719 991.194 388.284C986.847 392.835 981.54 395.118 975.244 395.118C969.82 395.118 965.589 393.33 962.55 389.753H962.535Z" fill="white"/>
</svg>
